<mxfile modified="2022-12-13T14:05:56.476Z" host="app.diagrams.net" agent="5.0 (X11)" etag="OtyiUZvr8yv_UYpNcqyN" version="20.6.2" type="github">
  <diagram id="Ht1M8jgEwFfnCIfOTk4-" name="Page-1">
    <mxGraphModel dx="1422" dy="759" grid="1" gridSize="10" guides="1" tooltips="1" connect="1" arrows="1" fold="1" page="1" pageScale="1" pageWidth="1169" pageHeight="827" math="0" shadow="0">
      <root>
        <mxCell id="0" />
        <mxCell id="1" parent="0" />
        <mxCell id="mJ8GjuPjmgihEE6Xo0Pr-1" value="&lt;font style=&quot;font-size: 60px;&quot;&gt;celery&lt;/font&gt;" style="rounded=0;whiteSpace=wrap;html=1;dashed=1;strokeWidth=5;fillColor=none;" vertex="1" parent="1">
          <mxGeometry x="437" y="1084" width="443" height="416" as="geometry" />
        </mxCell>
        <mxCell id="mJ8GjuPjmgihEE6Xo0Pr-2" value="" style="rounded=1;whiteSpace=wrap;html=1;strokeWidth=3;fontSize=30;fillColor=none;strokeColor=#FF5314;" vertex="1" parent="1">
          <mxGeometry x="93" y="40" width="1020" height="1520" as="geometry" />
        </mxCell>
        <mxCell id="mJ8GjuPjmgihEE6Xo0Pr-3" value="" style="rounded=0;whiteSpace=wrap;html=1;dashed=1;strokeWidth=5;fillColor=none;" vertex="1" parent="1">
          <mxGeometry x="437" y="543" width="443" height="399" as="geometry" />
        </mxCell>
        <mxCell id="mJ8GjuPjmgihEE6Xo0Pr-4" value="" style="rounded=0;whiteSpace=wrap;html=1;dashed=1;strokeWidth=5;fillColor=none;" vertex="1" parent="1">
          <mxGeometry x="437" y="343" width="443" height="166" as="geometry" />
        </mxCell>
        <mxCell id="mJ8GjuPjmgihEE6Xo0Pr-5" value="&lt;div&gt;Client&lt;/div&gt;&lt;div&gt;&lt;br&gt;&lt;/div&gt;" style="outlineConnect=0;gradientColor=none;fontColor=#545B64;strokeColor=none;fillColor=#879196;dashed=0;verticalLabelPosition=bottom;verticalAlign=top;align=center;html=1;fontSize=12;fontStyle=0;aspect=fixed;shape=mxgraph.aws4.illustration_desktop;pointerEvents=1;labelBackgroundColor=#ffffff;" vertex="1" parent="1">
          <mxGeometry x="213" y="382" width="100" height="91" as="geometry" />
        </mxCell>
        <mxCell id="mJ8GjuPjmgihEE6Xo0Pr-6" value="" style="sketch=0;outlineConnect=0;fontColor=#232F3E;gradientColor=none;fillColor=#2E27AD;strokeColor=none;dashed=0;verticalLabelPosition=bottom;verticalAlign=top;align=center;html=1;fontSize=12;fontStyle=0;aspect=fixed;pointerEvents=1;shape=mxgraph.aws4.rds_postgresql_instance_alt;" vertex="1" parent="1">
          <mxGeometry x="742" y="383.5" width="80" height="80" as="geometry" />
        </mxCell>
        <mxCell id="mJ8GjuPjmgihEE6Xo0Pr-7" value="" style="dashed=0;outlineConnect=0;html=1;align=center;labelPosition=center;verticalLabelPosition=bottom;verticalAlign=top;shape=mxgraph.webicons.apache;gradientColor=#DFDEDE" vertex="1" parent="1">
          <mxGeometry x="495" y="383.5" width="80" height="80" as="geometry" />
        </mxCell>
        <mxCell id="mJ8GjuPjmgihEE6Xo0Pr-8" value="" style="shape=image;html=1;verticalAlign=top;verticalLabelPosition=bottom;labelBackgroundColor=#ffffff;imageAspect=0;aspect=fixed;image=https://cdn2.iconfinder.com/data/icons/boxicons-logos/24/bxl-django-128.png" vertex="1" parent="1">
          <mxGeometry x="605" y="382" width="88" height="88" as="geometry" />
        </mxCell>
        <mxCell id="mJ8GjuPjmgihEE6Xo0Pr-9" value="" style="endArrow=classic;startArrow=classic;html=1;rounded=1;entryX=-0.01;entryY=0.504;entryDx=0;entryDy=0;entryPerimeter=0;jumpSize=60;strokeColor=default;sketch=0;strokeWidth=4;" edge="1" parent="1" target="mJ8GjuPjmgihEE6Xo0Pr-4">
          <mxGeometry width="50" height="50" relative="1" as="geometry">
            <mxPoint x="320" y="427" as="sourcePoint" />
            <mxPoint x="380" y="392" as="targetPoint" />
          </mxGeometry>
        </mxCell>
        <mxCell id="mJ8GjuPjmgihEE6Xo0Pr-10" value="https" style="edgeLabel;html=1;align=center;verticalAlign=middle;resizable=0;points=[];fontSize=30;" vertex="1" connectable="0" parent="mJ8GjuPjmgihEE6Xo0Pr-9">
          <mxGeometry x="-0.1285" y="-2" relative="1" as="geometry">
            <mxPoint x="7" y="-1" as="offset" />
          </mxGeometry>
        </mxCell>
        <mxCell id="mJ8GjuPjmgihEE6Xo0Pr-11" value="&lt;font color=&quot;#FF642B&quot;&gt;Draw.io&lt;/font&gt;" style="text;html=1;align=center;verticalAlign=middle;resizable=0;points=[];autosize=1;strokeColor=none;fillColor=none;fontSize=30;" vertex="1" parent="1">
          <mxGeometry x="213" y="140" width="120" height="50" as="geometry" />
        </mxCell>
        <mxCell id="mJ8GjuPjmgihEE6Xo0Pr-12" value="" style="shape=image;html=1;verticalAlign=top;verticalLabelPosition=bottom;labelBackgroundColor=#ffffff;imageAspect=0;aspect=fixed;image=https://cdn1.iconfinder.com/data/icons/unicons-line-vol-5/24/react-128.png" vertex="1" parent="1">
          <mxGeometry x="682" y="433" width="40" height="40" as="geometry" />
        </mxCell>
        <mxCell id="mJ8GjuPjmgihEE6Xo0Pr-13" value="" style="edgeStyle=orthogonalEdgeStyle;rounded=0;orthogonalLoop=1;jettySize=auto;html=1;strokeWidth=6;fontSize=30;fontColor=#FF6E42;exitX=1;exitY=0.5;exitDx=0;exitDy=0;exitPerimeter=0;" edge="1" parent="1" source="mJ8GjuPjmgihEE6Xo0Pr-15" target="mJ8GjuPjmgihEE6Xo0Pr-17">
          <mxGeometry relative="1" as="geometry" />
        </mxCell>
        <mxCell id="mJ8GjuPjmgihEE6Xo0Pr-14" style="edgeStyle=orthogonalEdgeStyle;rounded=0;orthogonalLoop=1;jettySize=auto;html=1;strokeWidth=6;fontSize=30;fontColor=#FF6E42;" edge="1" parent="1" source="mJ8GjuPjmgihEE6Xo0Pr-15" target="mJ8GjuPjmgihEE6Xo0Pr-16">
          <mxGeometry relative="1" as="geometry" />
        </mxCell>
        <mxCell id="mJ8GjuPjmgihEE6Xo0Pr-15" value="" style="outlineConnect=0;dashed=0;verticalLabelPosition=bottom;verticalAlign=top;align=center;html=1;shape=mxgraph.aws3.android;fillColor=#205E00;gradientColor=none;" vertex="1" parent="1">
          <mxGeometry x="635" y="706" width="38.5" height="44" as="geometry" />
        </mxCell>
        <mxCell id="mJ8GjuPjmgihEE6Xo0Pr-16" value="" style="shape=image;html=1;verticalAlign=top;verticalLabelPosition=bottom;labelBackgroundColor=#ffffff;imageAspect=0;aspect=fixed;image=https://cdn1.iconfinder.com/data/icons/bootstrap-vol-3/16/filetype-js-128.png" vertex="1" parent="1">
          <mxGeometry x="583" y="622" width="46" height="46" as="geometry" />
        </mxCell>
        <mxCell id="mJ8GjuPjmgihEE6Xo0Pr-17" value="" style="shape=image;html=1;verticalAlign=top;verticalLabelPosition=bottom;labelBackgroundColor=#ffffff;imageAspect=0;aspect=fixed;image=https://cdn1.iconfinder.com/data/icons/bootstrap-vol-3/16/filetype-scss-128.png" vertex="1" parent="1">
          <mxGeometry x="677.25" y="622" width="46" height="46" as="geometry" />
        </mxCell>
        <mxCell id="mJ8GjuPjmgihEE6Xo0Pr-18" style="edgeStyle=orthogonalEdgeStyle;rounded=0;orthogonalLoop=1;jettySize=auto;html=1;exitX=0.5;exitY=0;exitDx=0;exitDy=0;entryX=0.5;entryY=1;entryDx=0;entryDy=0;entryPerimeter=0;fontSize=30;fontColor=#FF6E42;strokeWidth=6;" edge="1" parent="1" source="mJ8GjuPjmgihEE6Xo0Pr-19" target="mJ8GjuPjmgihEE6Xo0Pr-15">
          <mxGeometry relative="1" as="geometry" />
        </mxCell>
        <mxCell id="mJ8GjuPjmgihEE6Xo0Pr-19" value="" style="shape=image;html=1;verticalAlign=top;verticalLabelPosition=bottom;labelBackgroundColor=#ffffff;imageAspect=0;aspect=fixed;image=https://cdn1.iconfinder.com/data/icons/bootstrap-vol-3/16/filetype-jsx-128.png" vertex="1" parent="1">
          <mxGeometry x="631.25" y="834" width="46" height="46" as="geometry" />
        </mxCell>
        <mxCell id="mJ8GjuPjmgihEE6Xo0Pr-20" value="&lt;div style=&quot;font-size: 30px;&quot;&gt;&lt;font style=&quot;font-size: 30px;&quot; color=&quot;#FF6E42&quot;&gt;Babel transpiles the &lt;br&gt;&lt;/font&gt;&lt;/div&gt;&lt;div style=&quot;font-size: 30px;&quot;&gt;&lt;font style=&quot;font-size: 30px;&quot; color=&quot;#FF6E42&quot;&gt;.jsx into .js and &lt;br&gt;&lt;/font&gt;&lt;/div&gt;&lt;div style=&quot;font-size: 30px;&quot;&gt;&lt;font style=&quot;font-size: 30px;&quot; color=&quot;#FF6E42&quot;&gt;Webpack then &lt;br&gt;&lt;/font&gt;&lt;/div&gt;&lt;div style=&quot;font-size: 30px;&quot;&gt;&lt;font style=&quot;font-size: 30px;&quot; color=&quot;#FF6E42&quot;&gt;bundles all &lt;br&gt;&lt;/font&gt;&lt;/div&gt;&lt;div style=&quot;font-size: 30px;&quot;&gt;&lt;font style=&quot;font-size: 30px;&quot; color=&quot;#FF6E42&quot;&gt;of the .js files and &lt;br&gt;&lt;/font&gt;&lt;/div&gt;&lt;div style=&quot;font-size: 30px;&quot;&gt;&lt;font style=&quot;font-size: 30px;&quot; color=&quot;#FF6E42&quot;&gt;the index.scss &lt;br&gt;&lt;/font&gt;&lt;/div&gt;&lt;div style=&quot;font-size: 30px;&quot;&gt;&lt;font style=&quot;font-size: 30px;&quot; color=&quot;#FF6E42&quot;&gt;into two files&lt;/font&gt;&lt;/div&gt;" style="text;html=1;align=center;verticalAlign=middle;resizable=0;points=[];autosize=1;strokeColor=none;fillColor=none;fontColor=#FF6E42;labelBackgroundColor=default;" vertex="1" parent="1">
          <mxGeometry x="760" y="668" width="290" height="270" as="geometry" />
        </mxCell>
        <mxCell id="mJ8GjuPjmgihEE6Xo0Pr-21" value="&lt;div&gt;&lt;font style=&quot;font-size: 30px;&quot;&gt;The front end is &lt;br&gt;&lt;/font&gt;&lt;/div&gt;&lt;div&gt;&lt;font style=&quot;font-size: 30px;&quot;&gt;integrated into django&lt;/font&gt;&lt;/div&gt;&lt;div&gt;&lt;font style=&quot;font-size: 30px;&quot;&gt;&amp;nbsp;as an &quot;app&quot;. It&#39;s static &lt;br&gt;&lt;/font&gt;&lt;/div&gt;&lt;div&gt;&lt;font style=&quot;font-size: 30px;&quot;&gt;files then get fed &lt;br&gt;&lt;/font&gt;&lt;/div&gt;&lt;div&gt;&lt;font style=&quot;font-size: 30px;&quot;&gt;into the main static &lt;br&gt;&lt;/font&gt;&lt;/div&gt;&lt;div&gt;&lt;font style=&quot;font-size: 30px;&quot;&gt;folder with the &lt;br&gt;&lt;/font&gt;&lt;/div&gt;&lt;div&gt;&lt;font style=&quot;font-size: 30px;&quot;&gt;collectstatic command&lt;/font&gt;&lt;/div&gt;" style="text;html=1;align=center;verticalAlign=middle;resizable=0;points=[];autosize=1;strokeColor=none;fillColor=none;fontColor=#FF6E42;labelBackgroundColor=default;" vertex="1" parent="1">
          <mxGeometry x="213" y="542" width="320" height="270" as="geometry" />
        </mxCell>
        <mxCell id="mJ8GjuPjmgihEE6Xo0Pr-22" value="" style="sketch=0;aspect=fixed;html=1;points=[];align=center;image;fontSize=12;image=img/lib/mscae/Cache_Redis_Product.svg;" vertex="1" parent="1">
          <mxGeometry x="704.63" y="1350" width="107.13" height="90" as="geometry" />
        </mxCell>
        <mxCell id="mJ8GjuPjmgihEE6Xo0Pr-23" style="edgeStyle=orthogonalEdgeStyle;rounded=0;orthogonalLoop=1;jettySize=auto;html=1;entryX=0.5;entryY=1;entryDx=0;entryDy=0;strokeWidth=6;fontSize=60;" edge="1" parent="1" source="mJ8GjuPjmgihEE6Xo0Pr-1" target="mJ8GjuPjmgihEE6Xo0Pr-3">
          <mxGeometry relative="1" as="geometry" />
        </mxCell>
        <mxCell id="mJ8GjuPjmgihEE6Xo0Pr-24" value="&lt;div style=&quot;font-size: 30px;&quot;&gt;&lt;font style=&quot;font-size: 30px;&quot; color=&quot;#FF6E42&quot;&gt;A demonized Celery&lt;/font&gt;&lt;/div&gt;&lt;div style=&quot;font-size: 30px;&quot;&gt;&lt;font style=&quot;font-size: 30px;&quot; color=&quot;#FF6E42&quot;&gt;managed by a systemd service&lt;/font&gt;&lt;/div&gt;&lt;div style=&quot;font-size: 30px;&quot;&gt;&lt;font style=&quot;font-size: 30px;&quot; color=&quot;#FF6E42&quot;&gt;handles all the incoming &lt;br&gt;&lt;/font&gt;&lt;/div&gt;&lt;div style=&quot;font-size: 30px;&quot;&gt;&lt;font style=&quot;font-size: 30px;&quot; color=&quot;#FF6E42&quot;&gt;asynchronous tasks.&lt;/font&gt;&lt;/div&gt;&lt;div style=&quot;font-size: 30px;&quot;&gt;&lt;font style=&quot;font-size: 30px;&quot; color=&quot;#FF6E42&quot;&gt;The django-celery beat scheduler&lt;/font&gt;&lt;/div&gt;&lt;div style=&quot;font-size: 30px;&quot;&gt;&lt;font style=&quot;font-size: 30px;&quot; color=&quot;#FF6E42&quot;&gt;processes tasks every 10 seconds&lt;br&gt;&lt;/font&gt;&lt;/div&gt;&lt;div style=&quot;font-size: 30px;&quot;&gt;&lt;font style=&quot;font-size: 30px;&quot; color=&quot;#FF6E42&quot;&gt;&lt;br&gt;&lt;/font&gt;&lt;/div&gt;" style="text;html=1;align=center;verticalAlign=middle;resizable=0;points=[];autosize=1;strokeColor=none;fillColor=none;fontColor=#FF6E42;labelBackgroundColor=default;" vertex="1" parent="1">
          <mxGeometry x="105" y="990" width="480" height="270" as="geometry" />
        </mxCell>
        <mxCell id="mJ8GjuPjmgihEE6Xo0Pr-25" value="&lt;div style=&quot;font-size: 30px;&quot;&gt;&lt;font style=&quot;font-size: 30px;&quot; color=&quot;#FF6E42&quot;&gt;Redis is used as a &lt;br&gt;&lt;/font&gt;&lt;/div&gt;&lt;div style=&quot;font-size: 30px;&quot;&gt;&lt;font style=&quot;font-size: 30px;&quot; color=&quot;#FF6E42&quot;&gt;caching service to store &lt;br&gt;&lt;/font&gt;&lt;/div&gt;&lt;div style=&quot;font-size: 30px;&quot;&gt;&lt;font style=&quot;font-size: 30px;&quot; color=&quot;#FF6E42&quot;&gt;our process_event tasks&lt;br&gt;&lt;/font&gt;&lt;/div&gt;" style="text;html=1;align=center;verticalAlign=middle;resizable=0;points=[];autosize=1;strokeColor=none;fillColor=none;fontColor=#FF6E42;labelBackgroundColor=default;" vertex="1" parent="1">
          <mxGeometry x="170" y="1335" width="350" height="120" as="geometry" />
        </mxCell>
        <mxCell id="mJ8GjuPjmgihEE6Xo0Pr-27" value="" style="shape=image;html=1;verticalAlign=top;verticalLabelPosition=bottom;labelBackgroundColor=#ffffff;imageAspect=0;aspect=fixed;image=https://cdn1.iconfinder.com/data/icons/bootstrap-vol-3/16/filetype-jsx-128.png" vertex="1" parent="1">
          <mxGeometry x="685.76" y="834" width="46" height="46" as="geometry" />
        </mxCell>
        <mxCell id="mJ8GjuPjmgihEE6Xo0Pr-28" value="" style="shape=image;html=1;verticalAlign=top;verticalLabelPosition=bottom;labelBackgroundColor=#ffffff;imageAspect=0;aspect=fixed;image=https://cdn1.iconfinder.com/data/icons/bootstrap-vol-3/16/filetype-jsx-128.png" vertex="1" parent="1">
          <mxGeometry x="570" y="834" width="46" height="46" as="geometry" />
        </mxCell>
        <mxCell id="mJ8GjuPjmgihEE6Xo0Pr-30" value="" style="shape=image;html=1;verticalAlign=top;verticalLabelPosition=bottom;labelBackgroundColor=#ffffff;imageAspect=0;aspect=fixed;image=https://cdn1.iconfinder.com/data/icons/bootstrap-vol-3/16/filetype-scss-128.png" vertex="1" parent="1">
          <mxGeometry x="512" y="834" width="46" height="46" as="geometry" />
        </mxCell>
        <mxCell id="mJ8GjuPjmgihEE6Xo0Pr-31" value="" style="shape=image;html=1;verticalAlign=top;verticalLabelPosition=bottom;labelBackgroundColor=#ffffff;imageAspect=0;aspect=fixed;image=https://cdn1.iconfinder.com/data/icons/bootstrap-vol-3/16/filetype-scss-128.png" vertex="1" parent="1">
          <mxGeometry x="735.2" y="834" width="46" height="46" as="geometry" />
        </mxCell>
      </root>
    </mxGraphModel>
  </diagram>
</mxfile>
